<svg width="1280" height="720" xmlns="http://www.w3.org/2000/svg" xmlns:xlink="http://www.w3.org/1999/xlink" overflow="hidden"><defs><filter id="fx0" x="-10%" y="-10%" width="120%" height="120%" filterUnits="userSpaceOnUse" primitiveUnits="userSpaceOnUse"><feComponentTransfer color-interpolation-filters="sRGB"><feFuncR type="discrete" tableValues="0 0"/><feFuncG type="discrete" tableValues="0 0"/><feFuncB type="discrete" tableValues="0 0"/><feFuncA type="linear" slope="0.14902" intercept="0"/></feComponentTransfer><feGaussianBlur stdDeviation="2.22222 2.22222"/></filter><filter id="fx1" x="-10%" y="-10%" width="120%" height="120%" filterUnits="userSpaceOnUse" primitiveUnits="userSpaceOnUse"><feComponentTransfer color-interpolation-filters="sRGB"><feFuncR type="discrete" tableValues="0.541176 0.541176"/><feFuncG type="discrete" tableValues="0.168627 0.168627"/><feFuncB type="discrete" tableValues="0.886275 0.886275"/><feFuncA type="linear" slope="0.701961" intercept="0"/></feComponentTransfer><feGaussianBlur stdDeviation="1.77778 1.77778"/></filter><clipPath id="clip2"><rect x="0" y="0" width="1280" height="720"/></clipPath><clipPath id="clip3"><rect x="-4" y="-4" width="271" height="741"/></clipPath><clipPath id="clip4"><rect x="0" y="0" width="266" height="734"/></clipPath><linearGradient x1="132.667" y1="727" x2="132.667" y2="7" gradientUnits="userSpaceOnUse" spreadMethod="reflect" id="fill5"><stop offset="0" stop-color="#EE82EE"/><stop offset="0.13" stop-color="#DA70D6" stop-opacity="0.847059"/><stop offset="1" stop-color="#7D2EC1"/></linearGradient><linearGradient x1="125" y1="720" x2="125" y2="0" gradientUnits="userSpaceOnUse" spreadMethod="reflect" id="fill6"><stop offset="0" stop-color="#EE82EE"/><stop offset="0.13" stop-color="#DA70D6" stop-opacity="0.847059"/><stop offset="1" stop-color="#7D2EC1"/></linearGradient><clipPath id="clip7"><rect x="-2" y="-2" width="1113" height="735"/></clipPath><clipPath id="clip8"><rect x="0" y="0" width="1111" height="732"/></clipPath></defs><g clip-path="url(#clip2)"><rect x="0" y="0" width="1280" height="720" fill="#FFFFFF" fill-opacity="0.54902"/><g clip-path="url(#clip3)" filter="url(#fx0)" transform="translate(3 -7)"><g clip-path="url(#clip4)"><rect x="7.66667" y="7" width="250" height="720" fill="url(#fill5)"/></g></g><rect x="0" y="0" width="250" height="720" fill="url(#fill6)"/><g clip-path="url(#clip7)" filter="url(#fx1)" transform="translate(172 -6)"><g clip-path="url(#clip8)"><path d="M7 20.1048C7 12.3149 13.3149 6 21.1048 6L1089.9 6C1097.69 6 1104 12.3149 1104 20.1048L1104 711.895C1104 719.685 1097.69 726 1089.9 726L21.1048 726C13.3149 726 7 719.685 7 711.895Z" fill="#F2F2F2" fill-rule="evenodd" fill-opacity="0.94902"/></g></g><path d="M183 14.1048C183 6.31494 189.315 0 197.105 0L1265.9 0C1273.69-2.18223e-15 1280 6.31494 1280 14.1048L1280 705.895C1280 713.685 1273.69 720 1265.9 720L197.105 720C189.315 720 183 713.685 183 705.895Z" fill="#F2F2F2" fill-rule="evenodd" fill-opacity="0.94902"/></g></svg>